<?xml version="1.0" encoding="utf-8" standalone="no"?>
<!DOCTYPE svg PUBLIC "-//W3C//DTD SVG 1.1//EN"
  "http://www.w3.org/Graphics/SVG/1.1/DTD/svg11.dtd">
<svg xmlns:xlink="http://www.w3.org/1999/xlink" width="576pt" height="563.976pt" viewBox="0 0 576 563.976" xmlns="http://www.w3.org/2000/svg" version="1.1">
 <metadata>
  <rdf:RDF xmlns:dc="http://purl.org/dc/elements/1.1/" xmlns:cc="http://creativecommons.org/ns#" xmlns:rdf="http://www.w3.org/1999/02/22-rdf-syntax-ns#">
   <cc:Work>
    <dc:type rdf:resource="http://purl.org/dc/dcmitype/StillImage"/>
    <dc:format>image/svg+xml</dc:format>
    <dc:creator>
     <cc:Agent>
      <dc:title>generate_arrhenius_derivation.py</dc:title>
     </cc:Agent>
    </dc:creator>
   </cc:Work>
  </rdf:RDF>
 </metadata>
 <defs>
  <style type="text/css">*{stroke-linejoin: round; stroke-linecap: butt}</style>
 </defs>
 <g id="figure_1">
  <g id="patch_1">
   <path d="M 0 563.976
L 576 563.976
L 576 0
L 0 0
z
" style="fill: #f7f5ef"/>
  </g>
  <g id="axes_1">
   <g id="patch_2">
    <path d="M 21.312 181.600272
L 554.688 181.600272
Q 568.512 181.600272 568.512 168.064848
L 568.512 26.506872
Q 568.512 12.971448 554.688 12.971448
L 21.312 12.971448
Q 7.488 12.971448 7.488 26.506872
L 7.488 168.064848
Q 7.488 181.600272 21.312 181.600272
z
" clip-path="url(#p9205cab4ad)" style="fill: #ffffff; stroke: #d4d0c6; stroke-width: 1.5; stroke-linejoin: miter"/>
   </g>
   <g id="patch_3">
    <path d="M 21.312 359.252712
L 554.688 359.252712
Q 568.512 359.252712 568.512 345.717288
L 568.512 204.159312
Q 568.512 190.623888 554.688 190.623888
L 21.312 190.623888
Q 7.488 190.623888 7.488 204.159312
L 7.488 345.717288
Q 7.488 359.252712 21.312 359.252712
z
" clip-path="url(#p9205cab4ad)" style="fill: #ffffff; stroke: #d4d0c6; stroke-width: 1.5; stroke-linejoin: miter"/>
   </g>
   <g id="patch_4">
    <path d="M 21.312 545.364792
L 554.688 545.364792
Q 568.512 545.364792 568.512 531.829368
L 568.512 384.631632
Q 568.512 371.096208 554.688 371.096208
L 21.312 371.096208
Q 7.488 371.096208 7.488 384.631632
L 7.488 531.829368
Q 7.488 545.364792 21.312 545.364792
z
" clip-path="url(#p9205cab4ad)" style="fill: #ffffff; stroke: #d4d0c6; stroke-width: 1.5; stroke-linejoin: miter"/>
   </g>
   <g id="patch_5">
    <path d="M 52.992 70.035707
L 31.104 107.15544
L 52.992 144.275173
L 96.768 144.275173
L 118.656 107.15544
L 96.768 70.035707
z
" clip-path="url(#p9205cab4ad)" style="fill: #eff5f6; stroke: #7ca6b6; stroke-width: 2; stroke-linejoin: miter"/>
   </g>
   <g id="patch_6">
    <path d="M 130.752 70.035707
L 108.864 107.15544
L 130.752 144.275173
L 174.528 144.275173
L 196.416 107.15544
L 174.528 70.035707
z
" clip-path="url(#p9205cab4ad)" style="fill: #eff5f6; stroke: #7ca6b6; stroke-width: 2; stroke-linejoin: miter"/>
   </g>
   <g id="patch_7">
    <path d="M 208.512 70.035707
L 186.624 107.15544
L 208.512 144.275173
L 252.288 144.275173
L 274.176 107.15544
L 252.288 70.035707
z
" clip-path="url(#p9205cab4ad)" style="fill: #eff5f6; stroke: #7ca6b6; stroke-width: 2; stroke-linejoin: miter"/>
   </g>
   <g id="patch_8">
    <path d="M 74.88 120.126888
C 78.393411 120.126888 81.763394 118.760134 84.247751 116.327639
C 86.732107 113.895143 88.128 110.595508 88.128 107.15544
C 88.128 103.715372 86.732107 100.415737 84.247751 97.983241
C 81.763394 95.550746 78.393411 94.183992 74.88 94.183992
C 71.366589 94.183992 67.996606 95.550746 65.512249 97.983241
C 63.027893 100.415737 61.632 103.715372 61.632 107.15544
C 61.632 110.595508 63.027893 113.895143 65.512249 116.327639
C 67.996606 118.760134 71.366589 120.126888 74.88 120.126888
z
" clip-path="url(#p9205cab4ad)" style="fill: #df7650; stroke: #b85e3d; stroke-width: 1.6; stroke-linejoin: miter"/>
   </g>
   <g id="patch_9">
    <path d="M 152.64 120.126888
C 156.153411 120.126888 159.523394 118.760134 162.007751 116.327639
C 164.492107 113.895143 165.888 110.595508 165.888 107.15544
C 165.888 103.715372 164.492107 100.415737 162.007751 97.983241
C 159.523394 95.550746 156.153411 94.183992 152.64 94.183992
C 149.126589 94.183992 145.756606 95.550746 143.272249 97.983241
C 140.787893 100.415737 139.392 103.715372 139.392 107.15544
C 139.392 110.595508 140.787893 113.895143 143.272249 116.327639
C 145.756606 118.760134 149.126589 120.126888 152.64 120.126888
z
" clip-path="url(#p9205cab4ad)" style="fill: #ffffff; stroke-dasharray: 5.1,3.4; stroke-dashoffset: 0; stroke: #765a7d; stroke-width: 1.7; stroke-linejoin: miter"/>
   </g>
   <g id="patch_10">
    <path d="M 94.160602 107.15544
Q 113.47308 107.15544 130.773098 107.15544
" clip-path="url(#p9205cab4ad)" style="fill: none; stroke: #6a706c; stroke-width: 1.8; stroke-linecap: round"/>
    <path d="M 124.373098 103.95544
L 130.773098 107.15544
L 124.373098 110.35544
z
" clip-path="url(#p9205cab4ad)" style="fill: #6a706c; stroke: #6a706c; stroke-width: 1.8; stroke-linecap: round"/>
   </g>
   <g id="patch_11">
    <path d="M 348.48 330.489936
L 532.8 330.489936
Q 541.44 330.489936 541.44 322.030296
L 541.44 266.760648
Q 541.44 258.301008 532.8 258.301008
L 348.48 258.301008
Q 339.84 258.301008 339.84 266.760648
L 339.84 322.030296
Q 339.84 330.489936 348.48 330.489936
z
" clip-path="url(#p9205cab4ad)" style="fill: #f5e8e0; stroke: #d8a78e; stroke-width: 1.4; stroke-linejoin: miter"/>
   </g>
   <g id="patch_12">
    <path d="M 37.44 462.46032
L 123.84 462.46032
Q 132.48 462.46032 132.48 454.00068
L 132.48 417.34224
Q 132.48 408.8826 123.84 408.8826
L 37.44 408.8826
Q 28.8 408.8826 28.8 417.34224
L 28.8 454.00068
Q 28.8 462.46032 37.44 462.46032
z
" clip-path="url(#p9205cab4ad)" style="fill: #e5f0f4; stroke: #9bbdcd; stroke-width: 1.4; stroke-linejoin: miter"/>
   </g>
   <g id="patch_13">
    <path d="M 158.4 462.46032
L 279.36 462.46032
Q 288 462.46032 288 454.00068
L 288 417.34224
Q 288 408.8826 279.36 408.8826
L 158.4 408.8826
Q 149.76 408.8826 149.76 417.34224
L 149.76 454.00068
Q 149.76 462.46032 158.4 462.46032
z
" clip-path="url(#p9205cab4ad)" style="fill: #f5e8e0; stroke: #d8a78e; stroke-width: 1.4; stroke-linejoin: miter"/>
   </g>
   <g id="patch_14">
    <path d="M 313.92 462.46032
L 400.32 462.46032
Q 408.96 462.46032 408.96 454.00068
L 408.96 417.34224
Q 408.96 408.8826 400.32 408.8826
L 313.92 408.8826
Q 305.28 408.8826 305.28 417.34224
L 305.28 454.00068
Q 305.28 462.46032 313.92 462.46032
z
" clip-path="url(#p9205cab4ad)" style="fill: #eee7f0; stroke: #bea7c5; stroke-width: 1.4; stroke-linejoin: miter"/>
   </g>
   <g id="patch_15">
    <path d="M 410.960391 435.389472
Q 423.360771 435.389472 433.748691 435.389472
" clip-path="url(#p9205cab4ad)" style="fill: none; stroke: #6a706c; stroke-width: 1.8; stroke-linecap: round"/>
    <path d="M 427.348691 432.189472
L 433.748691 435.389472
L 427.348691 438.589472
z
" clip-path="url(#p9205cab4ad)" style="fill: #6a706c; stroke: #6a706c; stroke-width: 1.8; stroke-linecap: round"/>
   </g>
   <g id="patch_16">
    <path d="M 271.872 528.445512
L 537.408 528.445512
Q 545.472 528.445512 545.472 520.549848
L 545.472 482.19948
Q 545.472 474.303816 537.408 474.303816
L 271.872 474.303816
Q 263.808 474.303816 263.808 482.19948
L 263.808 520.549848
Q 263.808 528.445512 271.872 528.445512
z
" clip-path="url(#p9205cab4ad)" style="fill: #eee7f0; stroke: #bea7c5; stroke-width: 1.5; stroke-linejoin: miter"/>
   </g>
   <g id="line2d_1">
    <path d="M 114.048 129.71448
L 114.048 84.5964
" clip-path="url(#p9205cab4ad)" style="fill: none; stroke: #765a7d; stroke-width: 3; stroke-linecap: round"/>
   </g>
   <g id="line2d_2">
    <path d="M 293.76 157.91328
L 535.68 157.91328
" clip-path="url(#p9205cab4ad)" style="fill: none; stroke: #777c78; stroke-width: 1.3; stroke-linecap: square"/>
   </g>
   <g id="line2d_3">
    <path d="M 293.76 157.91328
L 293.76 67.67712
" clip-path="url(#p9205cab4ad)" style="fill: none; stroke: #777c78; stroke-width: 1.3; stroke-linecap: square"/>
   </g>
   <g id="line2d_4">
    <path d="M 293.76 152.930408
L 298.43027 153.625148
L 303.100541 154.077652
L 306.836757 154.226188
L 310.572973 154.165889
L 314.309189 153.891966
L 318.045405 153.410953
L 321.781622 152.738202
L 326.451892 151.65861
L 331.122162 150.349853
L 335.792432 148.836767
L 340.462703 147.118754
L 345.132973 145.163721
L 348.869189 143.387795
L 352.605405 141.377524
L 356.341622 139.08518
L 360.077838 136.464203
L 362.88 134.259043
L 365.682162 131.835806
L 369.418378 128.258259
L 373.154595 124.295601
L 376.890811 119.987206
L 381.561081 114.226947
L 393.703784 98.938162
L 397.44 94.760277
L 400.242162 91.979038
L 403.044324 89.576735
L 404.912432 88.216608
L 406.780541 87.068524
L 408.648649 86.146169
L 410.516757 85.460678
L 412.384865 85.020401
L 414.252973 84.830739
L 416.121081 84.894025
L 417.989189 85.209479
L 419.857297 85.773226
L 421.725405 86.578371
L 423.593514 87.615148
L 425.461622 88.871114
L 427.32973 90.331407
L 430.131892 92.867299
L 432.934054 95.759794
L 436.67027 100.048388
L 441.340541 105.856039
L 451.615135 118.863709
L 455.351351 123.248691
L 459.087568 127.302686
L 462.823784 130.978547
L 466.56 134.259043
L 470.296216 137.152572
L 474.032432 139.687338
L 477.768649 141.904643
L 481.504865 143.851945
L 485.241081 145.576301
L 489.911351 147.479823
L 494.581622 149.155324
L 499.251892 150.628439
L 503.922162 151.893988
L 508.592432 152.923298
L 512.328649 153.549899
L 516.064865 153.980292
L 519.801081 154.20101
L 523.537297 154.208178
L 527.273514 154.009609
L 531.943784 153.503362
L 535.68 152.930408
L 535.68 152.930408
" clip-path="url(#p9205cab4ad)" style="fill: none; stroke: #765a7d; stroke-width: 3; stroke-linecap: square"/>
   </g>
   <g id="line2d_5">
    <path d="M 414.252973 154.226188
L 414.252973 84.830739
" clip-path="url(#p9205cab4ad)" style="fill: none; stroke-dasharray: 8,6; stroke-dashoffset: 0; stroke: #df7650; stroke-width: 2"/>
   </g>
   <g id="line2d_6">
    <path d="M 43.2 335.56572
L 308.16 335.56572
" clip-path="url(#p9205cab4ad)" style="fill: none; stroke: #777c78; stroke-width: 1.3; stroke-linecap: square"/>
   </g>
   <g id="line2d_7">
    <path d="M 43.2 335.56572
L 43.2 239.6898
" clip-path="url(#p9205cab4ad)" style="fill: none; stroke: #777c78; stroke-width: 1.3; stroke-linecap: square"/>
   </g>
   <g id="line2d_8">
    <path d="M 43.2 239.6898
L 46.522382 247.423595
L 49.844765 254.533547
L 53.167147 261.069977
L 56.48953 267.079148
L 59.811912 272.603592
L 63.134295 277.682408
L 66.456677 282.351544
L 69.77906 286.644045
L 73.101442 290.590294
L 76.423824 294.21822
L 79.746207 297.553501
L 83.068589 300.619742
L 86.390972 303.438646
L 90.54395 306.644698
L 94.696928 309.530809
L 98.849906 312.128907
L 103.002884 314.467733
L 107.155862 316.573161
L 112.139436 318.824217
L 117.123009 320.808471
L 122.106583 322.557545
L 127.920752 324.33789
L 133.734922 325.874571
L 140.379687 327.374979
L 147.024451 328.64309
L 154.499812 329.836604
L 162.805768 330.923
L 171.94232 331.881666
L 181.909467 332.703205
L 193.537806 333.433133
L 206.827335 334.04236
L 223.439248 334.565323
L 243.373542 334.961749
L 269.952602 335.257537
L 308.16 335.448566
L 308.16 335.448566
" clip-path="url(#p9205cab4ad)" style="fill: none; stroke: #4f93bc; stroke-width: 2.8; stroke-linecap: square"/>
   </g>
   <g id="line2d_9">
    <path d="M 43.2 239.6898
L 48.183574 245.997839
L 53.167147 251.890849
L 58.150721 257.396136
L 63.134295 262.539208
L 68.117868 267.343899
L 73.101442 271.83247
L 78.085016 276.025722
L 83.068589 279.943084
L 88.052163 283.602707
L 93.035737 287.021551
L 98.849906 290.726957
L 104.664075 294.149528
L 110.478245 297.310852
L 116.292414 300.23087
L 122.937179 303.296119
L 129.581944 306.095463
L 136.226708 308.651967
L 142.871473 310.986698
L 150.346834 313.37207
L 157.822194 315.525944
L 166.12815 317.674878
L 174.434107 319.593374
L 183.570658 321.466976
L 192.70721 323.120799
L 202.674357 324.704524
L 213.4721 326.193619
L 225.100439 327.569771
L 237.559373 328.820798
L 251.679498 330.003715
L 266.630219 331.030904
L 283.242132 331.951326
L 302.345831 332.781313
L 308.16 332.993849
L 308.16 332.993849
" clip-path="url(#p9205cab4ad)" style="fill: none; stroke: #df7650; stroke-width: 2.8; stroke-linecap: square"/>
   </g>
   <g id="line2d_10">
    <path d="M 163.636364 335.56572
L 163.636364 239.6898
" clip-path="url(#p9205cab4ad)" style="fill: none; stroke-dasharray: 8,6; stroke-dashoffset: 0; stroke: #765a7d; stroke-width: 2"/>
   </g>
   <g id="line2d_11">
    <path d="M 43.2 331.019599
L 163.636364 331.019599
" clip-path="url(#p9205cab4ad)" style="fill: none; stroke-dasharray: 3.3,3.3; stroke-dashoffset: 0; stroke: #4f93bc; stroke-opacity: 0.65; stroke-width: 1.1"/>
   </g>
   <g id="line2d_12">
    <path d="M 43.2 317.055593
L 163.636364 317.055593
" clip-path="url(#p9205cab4ad)" style="fill: none; stroke-dasharray: 3.3,3.3; stroke-dashoffset: 0; stroke: #df7650; stroke-opacity: 0.65; stroke-width: 1.1"/>
   </g>
   <g id="line2d_13">
    <path d="M 443.52 459.64044
L 443.52 414.52236
" clip-path="url(#p9205cab4ad)" style="fill: none; stroke: #d6dad7; stroke-width: 0.9; stroke-linecap: square"/>
   </g>
   <g id="line2d_14">
    <path d="M 468 459.64044
L 468 414.52236
" clip-path="url(#p9205cab4ad)" style="fill: none; stroke: #d6dad7; stroke-width: 0.9; stroke-linecap: square"/>
   </g>
   <g id="line2d_15">
    <path d="M 492.48 459.64044
L 492.48 414.52236
" clip-path="url(#p9205cab4ad)" style="fill: none; stroke: #d6dad7; stroke-width: 0.9; stroke-linecap: square"/>
   </g>
   <g id="line2d_16">
    <path d="M 516.96 459.64044
L 516.96 414.52236
" clip-path="url(#p9205cab4ad)" style="fill: none; stroke: #d6dad7; stroke-width: 0.9; stroke-linecap: square"/>
   </g>
   <g id="line2d_17">
    <path d="M 541.44 459.64044
L 541.44 414.52236
" clip-path="url(#p9205cab4ad)" style="fill: none; stroke: #d6dad7; stroke-width: 0.9; stroke-linecap: square"/>
   </g>
   <g id="line2d_18">
    <path d="M 443.52 459.64044
L 541.44 459.64044
" clip-path="url(#p9205cab4ad)" style="fill: none; stroke: #d6dad7; stroke-width: 0.9; stroke-linecap: square"/>
   </g>
   <g id="line2d_19">
    <path d="M 443.52 444.60108
L 541.44 444.60108
" clip-path="url(#p9205cab4ad)" style="fill: none; stroke: #d6dad7; stroke-width: 0.9; stroke-linecap: square"/>
   </g>
   <g id="line2d_20">
    <path d="M 443.52 429.56172
L 541.44 429.56172
" clip-path="url(#p9205cab4ad)" style="fill: none; stroke: #d6dad7; stroke-width: 0.9; stroke-linecap: square"/>
   </g>
   <g id="line2d_21">
    <path d="M 443.52 414.52236
L 541.44 414.52236
" clip-path="url(#p9205cab4ad)" style="fill: none; stroke: #d6dad7; stroke-width: 0.9; stroke-linecap: square"/>
   </g>
   <g id="line2d_22">
    <path d="M 443.52 444.60108
L 468 444.60108
L 468 429.56172
L 492.48 429.56172
L 492.48 414.52236
L 516.96 414.52236
L 516.96 429.56172
L 541.44 429.56172
" clip-path="url(#p9205cab4ad)" style="fill: none; stroke: #2e79a8; stroke-width: 2.6; stroke-linecap: square"/>
   </g>
   <g id="text_1">
    <text style="font-size: 13px; font-family: 'DejaVu Sans'; text-anchor: start; fill: #59605c" x="31.68" y="43.065507" transform="rotate(-0 31.68 43.065507)">1 · argon must squeeze through a bottleneck between cavities</text>
   </g>
   <g id="text_2">
    <text style="font-size: 9.2px; font-family: 'DejaVu Sans'; text-anchor: middle; fill: #ffffff" x="74.88" y="109.694065" transform="rotate(-0 74.88 109.694065)">Ar</text>
   </g>
   <g id="text_3">
    <text style="font-size: 9.5px; font-family: 'DejaVu Sans'; text-anchor: middle; fill: #59605c" x="74.88" y="164.680992" transform="rotate(-0 74.88 164.680992)">stable cavity</text>
   </g>
   <g id="text_4">
    <text style="font-size: 9.5px; font-family: 'DejaVu Sans'; text-anchor: middle; fill: #59605c" x="152.64" y="164.680992" transform="rotate(-0 152.64 164.680992)">neighboring cavity</text>
   </g>
   <g id="text_5">
    <text style="font-size: 9.5px; font-family: 'DejaVu Sans'; text-anchor: middle; fill: #765a7d" x="114.048" y="75.572784" transform="rotate(-0 114.048 75.572784)">narrow passage</text>
   </g>
   <g id="text_6">
    <!-- activation energy  $E_a$ -->
    <g style="fill: #b85e3d" transform="translate(428.076973 122.553464)">
     <text>
      <tspan x="0" y="-0.640625" style="font-size: 11px; font-family: 'DejaVu Sans'; fill: #b85e3d">a</tspan>
      <tspan x="6.740723" y="-0.640625" style="font-size: 11px; font-family: 'DejaVu Sans'; fill: #b85e3d">c</tspan>
      <tspan x="12.788574" y="-0.640625" style="font-size: 11px; font-family: 'DejaVu Sans'; fill: #b85e3d">t</tspan>
      <tspan x="17.101562" y="-0.640625" style="font-size: 11px; font-family: 'DejaVu Sans'; fill: #b85e3d">i</tspan>
      <tspan x="20.157715" y="-0.640625" style="font-size: 11px; font-family: 'DejaVu Sans'; fill: #b85e3d">v</tspan>
      <tspan x="26.66748" y="-0.640625" style="font-size: 11px; font-family: 'DejaVu Sans'; fill: #b85e3d">a</tspan>
      <tspan x="33.408203" y="-0.640625" style="font-size: 11px; font-family: 'DejaVu Sans'; fill: #b85e3d">t</tspan>
      <tspan x="37.721191" y="-0.640625" style="font-size: 11px; font-family: 'DejaVu Sans'; fill: #b85e3d">i</tspan>
      <tspan x="40.777344" y="-0.640625" style="font-size: 11px; font-family: 'DejaVu Sans'; fill: #b85e3d">o</tspan>
      <tspan x="47.507324" y="-0.640625" style="font-size: 11px; font-family: 'DejaVu Sans'; fill: #b85e3d">n</tspan>
      <tspan x="54.479004" y="-0.640625" style="font-size: 11px; font-family: 'DejaVu Sans'; fill: #b85e3d"> </tspan>
      <tspan x="57.975586" y="-0.640625" style="font-size: 11px; font-family: 'DejaVu Sans'; fill: #b85e3d">e</tspan>
      <tspan x="64.743164" y="-0.640625" style="font-size: 11px; font-family: 'DejaVu Sans'; fill: #b85e3d">n</tspan>
      <tspan x="71.714844" y="-0.640625" style="font-size: 11px; font-family: 'DejaVu Sans'; fill: #b85e3d">e</tspan>
      <tspan x="78.482422" y="-0.640625" style="font-size: 11px; font-family: 'DejaVu Sans'; fill: #b85e3d">r</tspan>
      <tspan x="83.004883" y="-0.640625" style="font-size: 11px; font-family: 'DejaVu Sans'; fill: #b85e3d">g</tspan>
      <tspan x="89.987305" y="-0.640625" style="font-size: 11px; font-family: 'DejaVu Sans'; fill: #b85e3d">y</tspan>
      <tspan x="96.49707" y="-0.640625" style="font-size: 11px; font-family: 'DejaVu Sans'; fill: #b85e3d"> </tspan>
      <tspan x="99.993652" y="-0.640625" style="font-size: 11px; font-family: 'DejaVu Sans'; fill: #b85e3d"> </tspan>
      <tspan x="103.490234" y="-0.640625" style="font-style: italic; font-size: 11px; font-family: 'DejaVu Serif'; fill: #b85e3d">E</tspan>
      <tspan x="111.52002" y="1.070312" style="font-style: italic; font-size: 7.7px; font-family: 'DejaVu Serif'; fill: #b85e3d">a</tspan>
     </text>
    </g>
   </g>
   <g id="text_7">
    <text style="font-size: 9.5px; font-family: 'DejaVu Sans'; text-anchor: middle; fill: #59605c" x="414.72" y="171.448704" transform="rotate(-0 414.72 171.448704)">position along the hop</text>
   </g>
   <g id="text_8">
    <text style="font-size: 9.5px; font-family: 'DejaVu Sans'; fill: #59605c" transform="translate(282.557406 126.527586) rotate(-90)">energy</text>
   </g>
   <g id="text_9">
    <text style="font-size: 13px; font-family: 'DejaVu Sans'; text-anchor: start; fill: #59605c" x="31.68" y="220.717948" transform="rotate(-0 31.68 220.717948)">2 · warmer atoms clear the same barrier more often</text>
   </g>
   <g id="text_10">
    <text style="font-size: 10.5px; font-family: 'DejaVu Sans'; text-anchor: start; fill: #4f93bc" x="77.76" y="253.7892" transform="rotate(-0 77.76 253.7892)">cold</text>
   </g>
   <g id="text_11">
    <text style="font-size: 10.5px; font-family: 'DejaVu Sans'; text-anchor: start; fill: #bd5e39" x="135.36" y="270.70848" transform="rotate(-0 135.36 270.70848)">warm</text>
   </g>
   <g id="text_12">
    <!-- $E_a$ -->
    <g style="fill: #765a7d" transform="translate(168.244364 242.50968)">
     <text>
      <tspan x="0" y="-0.984375" style="font-style: italic; font-size: 11px; font-family: 'DejaVu Serif'; fill: #765a7d">E</tspan>
      <tspan x="8.029785" y="0.726562" style="font-style: italic; font-size: 7.7px; font-family: 'DejaVu Serif'; fill: #765a7d">a</tspan>
     </text>
    </g>
   </g>
   <g id="text_13">
    <text style="font-size: 9.2px; font-family: 'DejaVu Sans'; text-anchor: middle; fill: #59605c" x="175.68" y="345.153312" transform="rotate(-0 175.68 345.153312)">energy of a lattice configuration</text>
   </g>
   <g id="text_14">
    <text style="font-size: 9.2px; font-family: 'DejaVu Sans'; fill: #59605c" transform="translate(29.067631 304.976948) rotate(-90)">relative</text>
    <text style="font-size: 9.2px; font-family: 'DejaVu Sans'; fill: #59605c" transform="translate(39.369619 329.195229) rotate(-90)">Boltzmann weight</text>
   </g>
   <g id="text_15">
    <!-- $\dfrac{w_T(E_a)}{w_T(0)}=\exp\!\left[-E_a/(R_gT)\right]$ -->
    <g style="fill: #252927" transform="translate(355.66 291.755437)">
     <text>
      <tspan x="0" y="-9.359375" style="font-style: italic; font-size: 14px; font-family: 'DejaVu Serif'; fill: #252927">w</tspan>
      <tspan x="4" y="7.978125" style="font-style: italic; font-size: 14px; font-family: 'DejaVu Serif'; fill: #252927">w</tspan>
      <tspan x="24.345117" y="-9.359375" style="font-style: italic; font-size: 14px; font-family: 'DejaVu Serif'; fill: #252927">E</tspan>
      <tspan x="106.588129" y="-0.896875" style="font-style: italic; font-size: 14px; font-family: 'DejaVu Serif'; fill: #252927">E</tspan>
      <tspan x="133.192523" y="-0.896875" style="font-style: italic; font-size: 14px; font-family: 'DejaVu Serif'; fill: #252927">R</tspan>
      <tspan x="150.37016" y="-0.896875" style="font-style: italic; font-size: 14px; font-family: 'DejaVu Serif'; fill: #252927">T</tspan>
      <tspan x="11.983398" y="-7.179688" style="font-style: italic; font-size: 9.8px; font-family: 'DejaVu Serif'; fill: #252927">T</tspan>
      <tspan x="15.983398" y="10.157812" style="font-style: italic; font-size: 9.8px; font-family: 'DejaVu Serif'; fill: #252927">T</tspan>
      <tspan x="34.564844" y="-7.179688" style="font-style: italic; font-size: 9.8px; font-family: 'DejaVu Serif'; fill: #252927">a</tspan>
      <tspan x="116.807855" y="1.282812" style="font-style: italic; font-size: 9.8px; font-family: 'DejaVu Serif'; fill: #252927">a</tspan>
      <tspan x="143.733539" y="1.282812" style="font-style: italic; font-size: 9.8px; font-family: 'DejaVu Serif'; fill: #252927">g</tspan>
      <tspan x="18.883203" y="-9.359375" style="font-size: 14px; font-family: 'DejaVu Serif'; fill: #252927">(</tspan>
      <tspan x="22.883203" y="7.978125" style="font-size: 14px; font-family: 'DejaVu Serif'; fill: #252927">(</tspan>
      <tspan x="28.345117" y="7.978125" style="font-size: 14px; font-family: 'DejaVu Serif'; fill: #252927">0</tspan>
      <tspan x="37.252344" y="7.978125" style="font-size: 14px; font-family: 'DejaVu Serif'; fill: #252927">)</tspan>
      <tspan x="40.770801" y="-9.359375" style="font-size: 14px; font-family: 'DejaVu Serif'; fill: #252927">)</tspan>
      <tspan x="50.637793" y="-0.896875" style="font-size: 14px; font-family: 'DejaVu Serif'; fill: #252927">=</tspan>
      <tspan x="65.02334" y="-0.896875" style="font-size: 14px; font-family: 'DejaVu Serif'; fill: #252927">e</tspan>
      <tspan x="73.308496" y="-0.896875" style="font-size: 14px; font-family: 'DejaVu Serif'; fill: #252927">x</tspan>
      <tspan x="81.204004" y="-0.896875" style="font-size: 14px; font-family: 'DejaVu Serif'; fill: #252927">p</tspan>
      <tspan x="94.85766" y="-0.896875" style="font-size: 14px; font-family: 'DejaVu Serif'; fill: #252927">−</tspan>
      <tspan x="123.013812" y="-0.896875" style="font-size: 14px; font-family: 'DejaVu Serif'; fill: #252927">/</tspan>
      <tspan x="127.730609" y="-0.896875" style="font-size: 14px; font-family: 'DejaVu Serif'; fill: #252927">(</tspan>
      <tspan x="159.708051" y="-0.896875" style="font-size: 14px; font-family: 'DejaVu Serif'; fill: #252927">)</tspan>
      <tspan x="90.165918" y="1.490625" style="font-size: 12.193466px; font-family: 'STIXSizeOneSym'; fill: #252927">[</tspan>
      <tspan x="165.169965" y="1.490625" style="font-size: 12.193466px; font-family: 'STIXSizeOneSym'; fill: #252927">]</tspan>
     </text>
     <rect x="0" y="-4.5375" width="46.232715" height="0.875"/>
    </g>
   </g>
   <g id="text_16">
    <text style="font-size: 9.2px; font-family: 'DejaVu Sans'; text-anchor: middle; fill: #59605c" x="440.64" y="315.206919" transform="rotate(-0 440.64 315.206919)">relative population at the bottleneck</text>
   </g>
   <g id="text_17">
    <!-- $\dfrac{w_T(E)}{w_T(0)}=\exp\!\left[-E/(R_gT)\right]$ -->
    <g style="fill: #252927" transform="translate(377.0775 242.9103)">
     <text>
      <tspan x="0" y="-6.640625" style="font-style: italic; font-size: 11.3px; font-family: 'DejaVu Serif'; fill: #252927">w</tspan>
      <tspan x="1" y="6.96875" style="font-style: italic; font-size: 11.3px; font-family: 'DejaVu Serif'; fill: #252927">w</tspan>
      <tspan x="19.556274" y="-6.640625" style="font-style: italic; font-size: 11.3px; font-family: 'DejaVu Serif'; fill: #252927">E</tspan>
      <tspan x="80.675699" y="-0.064063" style="font-style: italic; font-size: 11.3px; font-family: 'DejaVu Serif'; fill: #252927">E</tspan>
      <tspan x="97.0673" y="-0.064063" style="font-style: italic; font-size: 11.3px; font-family: 'DejaVu Serif'; fill: #252927">R</tspan>
      <tspan x="110.863992" y="-0.064063" style="font-style: italic; font-size: 11.3px; font-family: 'DejaVu Serif'; fill: #252927">T</tspan>
      <tspan x="9.629517" y="-4.929688" style="font-style: italic; font-size: 7.91px; font-family: 'DejaVu Serif'; fill: #252927">T</tspan>
      <tspan x="10.629517" y="8.679688" style="font-style: italic; font-size: 7.91px; font-family: 'DejaVu Serif'; fill: #252927">T</tspan>
      <tspan x="105.537759" y="1.646875" style="font-style: italic; font-size: 7.91px; font-family: 'DejaVu Serif'; fill: #252927">g</tspan>
      <tspan x="15.167236" y="-6.640625" style="font-size: 11.3px; font-family: 'DejaVu Serif'; fill: #252927">(</tspan>
      <tspan x="16.167236" y="6.96875" style="font-size: 11.3px; font-family: 'DejaVu Serif'; fill: #252927">(</tspan>
      <tspan x="20.556274" y="6.96875" style="font-size: 11.3px; font-family: 'DejaVu Serif'; fill: #252927">0</tspan>
      <tspan x="27.713867" y="6.96875" style="font-size: 11.3px; font-family: 'DejaVu Serif'; fill: #252927">)</tspan>
      <tspan x="27.768555" y="-6.640625" style="font-size: 11.3px; font-family: 'DejaVu Serif'; fill: #252927">)</tspan>
      <tspan x="35.703638" y="-0.064063" style="font-size: 11.3px; font-family: 'DejaVu Serif'; fill: #252927">=</tspan>
      <tspan x="47.263452" y="-0.064063" style="font-size: 11.3px; font-family: 'DejaVu Serif'; fill: #252927">e</tspan>
      <tspan x="53.921167" y="-0.064063" style="font-size: 11.3px; font-family: 'DejaVu Serif'; fill: #252927">x</tspan>
      <tspan x="60.265771" y="-0.064063" style="font-size: 11.3px; font-family: 'DejaVu Serif'; fill: #252927">p</tspan>
      <tspan x="71.249429" y="-0.064063" style="font-size: 11.3px; font-family: 'DejaVu Serif'; fill: #252927">−</tspan>
      <tspan x="88.887979" y="-0.064063" style="font-size: 11.3px; font-family: 'DejaVu Serif'; fill: #252927">/</tspan>
      <tspan x="92.678262" y="-0.064063" style="font-size: 11.3px; font-family: 'DejaVu Serif'; fill: #252927">(</tspan>
      <tspan x="118.367654" y="-0.064063" style="font-size: 11.3px; font-family: 'DejaVu Serif'; fill: #252927">)</tspan>
      <tspan x="67.46731" y="1.7125" style="font-size: 9.846023px; font-family: 'STIXSizeOneSym'; fill: #252927">[</tspan>
      <tspan x="122.756693" y="1.7125" style="font-size: 9.846023px; font-family: 'STIXSizeOneSym'; fill: #252927">]</tspan>
     </text>
     <rect x="0" y="-3.096875" width="32.157593" height="0.70625"/>
    </g>
   </g>
   <g id="text_18">
    <text style="font-size: 13px; font-family: 'DejaVu Sans'; text-anchor: start; fill: #59605c" x="31.68" y="401.190268" transform="rotate(-0 31.68 401.190268)">3 · many unbiased hops become diffusion</text>
   </g>
   <g id="text_19">
    <!-- $\nu_0$ -->
    <g style="fill: #252927" transform="translate(73.08 434.881783)">
     <text>
      <tspan x="0" y="-0.734375" style="font-style: italic; font-size: 14px; font-family: 'DejaVu Serif'; fill: #252927">ν</tspan>
      <tspan x="8.510742" y="1.445312" style="font-size: 9.8px; font-family: 'DejaVu Serif'; fill: #252927">0</tspan>
     </text>
    </g>
   </g>
   <g id="text_20">
    <text style="font-size: 9.2px; font-family: 'DejaVu Sans'; text-anchor: middle; fill: #59605c" x="80.64" y="450.899545" transform="rotate(-0 80.64 450.899545)">attempts / second</text>
   </g>
   <g id="text_21">
    <text style="font-size: 18px; font-family: 'DejaVu Sans'; text-anchor: middle; fill: #59605c" x="141.12" y="440.356347" transform="rotate(-0 141.12 440.356347)">×</text>
   </g>
   <g id="text_22">
    <!-- $e^{-E_a/(R_gT)}$ -->
    <g style="fill: #252927" transform="translate(189.62 434.881783)">
     <text>
      <tspan x="0" y="-0.465625" style="font-style: italic; font-size: 14px; font-family: 'DejaVu Serif'; fill: #252927">e</tspan>
      <tspan x="8.906953" y="-5.551562" style="font-size: 9.8px; font-family: 'DejaVu Serif'; fill: #252927">−</tspan>
      <tspan x="28.61626" y="-5.551562" style="font-size: 9.8px; font-family: 'DejaVu Serif'; fill: #252927">/</tspan>
      <tspan x="31.918018" y="-5.551562" style="font-size: 9.8px; font-family: 'DejaVu Serif'; fill: #252927">(</tspan>
      <tspan x="54.302227" y="-5.551562" style="font-size: 9.8px; font-family: 'DejaVu Serif'; fill: #252927">)</tspan>
      <tspan x="17.118281" y="-5.551562" style="font-style: italic; font-size: 9.8px; font-family: 'DejaVu Serif'; fill: #252927">E</tspan>
      <tspan x="35.741357" y="-5.551562" style="font-style: italic; font-size: 9.8px; font-family: 'DejaVu Serif'; fill: #252927">R</tspan>
      <tspan x="47.765703" y="-5.551562" style="font-style: italic; font-size: 9.8px; font-family: 'DejaVu Serif'; fill: #252927">T</tspan>
      <tspan x="24.27209" y="-4.025781" style="font-style: italic; font-size: 6.86px; font-family: 'DejaVu Serif'; fill: #252927">a</tspan>
      <tspan x="43.120068" y="-4.025781" style="font-style: italic; font-size: 6.86px; font-family: 'DejaVu Serif'; fill: #252927">g</tspan>
     </text>
    </g>
   </g>
   <g id="text_23">
    <text style="font-size: 9.2px; font-family: 'DejaVu Sans'; text-anchor: middle; fill: #59605c" x="218.88" y="450.899545" transform="rotate(-0 218.88 450.899545)">successful fraction</text>
   </g>
   <g id="text_24">
    <text style="font-size: 17px; font-family: 'DejaVu Sans'; text-anchor: middle; fill: #59605c" x="296.64" y="440.080409" transform="rotate(-0 296.64 440.080409)">=</text>
   </g>
   <g id="text_25">
    <!-- $\Gamma(T)$ -->
    <g style="fill: #252927" transform="translate(342.07 434.881783)">
     <text>
      <tspan x="0" y="-0.359375" style="font-size: 14px; font-family: 'DejaVu Serif'; fill: #252927">Γ</tspan>
      <tspan x="9.713867" y="-0.359375" style="font-size: 14px; font-family: 'DejaVu Serif'; fill: #252927">(</tspan>
      <tspan x="24.513672" y="-0.359375" style="font-size: 14px; font-family: 'DejaVu Serif'; fill: #252927">)</tspan>
      <tspan x="15.175781" y="-0.359375" style="font-style: italic; font-size: 14px; font-family: 'DejaVu Serif'; fill: #252927">T</tspan>
     </text>
    </g>
   </g>
   <g id="text_26">
    <text style="font-size: 9.2px; font-family: 'DejaVu Sans'; text-anchor: middle; fill: #59605c" x="357.12" y="450.899545" transform="rotate(-0 357.12 450.899545)">hops / second</text>
   </g>
   <g id="text_27">
    <!-- $\left\langle|\Delta\mathbf{x}|^2\right\rangle=\Gamma(T)t\ell^2=6D(T)t$ -->
    <g style="fill: #252927" transform="translate(31.68 501.749332)">
     <text>
      <tspan x="0" y="0.796875" style="font-size: 12.10391px; font-family: 'STIXSizeOneSym'; fill: #252927">⟨</tspan>
      <tspan x="39.761387" y="0.796875" style="font-size: 12.10391px; font-family: 'STIXSizeOneSym'; fill: #252927">⟩</tspan>
      <tspan x="7.00824" y="-0.296875" style="font-size: 13.3px; font-family: 'DejaVu Serif'; fill: #252927">|</tspan>
      <tspan x="11.472351" y="-0.296875" style="font-size: 13.3px; font-family: 'DejaVu Serif'; fill: #252927">Δ</tspan>
      <tspan x="28.940613" y="-0.296875" style="font-size: 13.3px; font-family: 'DejaVu Serif'; fill: #252927">|</tspan>
      <tspan x="49.282468" y="-0.296875" style="font-size: 13.3px; font-family: 'DejaVu Serif'; fill: #252927">=</tspan>
      <tspan x="62.897361" y="-0.296875" style="font-size: 13.3px; font-family: 'DejaVu Serif'; fill: #252927">Γ</tspan>
      <tspan x="72.090842" y="-0.296875" style="font-size: 13.3px; font-family: 'DejaVu Serif'; fill: #252927">(</tspan>
      <tspan x="86.0978" y="-0.296875" style="font-size: 13.3px; font-family: 'DejaVu Serif'; fill: #252927">)</tspan>
      <tspan x="113.132939" y="-0.296875" style="font-size: 13.3px; font-family: 'DejaVu Serif'; fill: #252927">=</tspan>
      <tspan x="126.747831" y="-0.296875" style="font-size: 13.3px; font-family: 'DejaVu Serif'; fill: #252927">6</tspan>
      <tspan x="145.801176" y="-0.296875" style="font-size: 13.3px; font-family: 'DejaVu Serif'; fill: #252927">(</tspan>
      <tspan x="159.808134" y="-0.296875" style="font-size: 13.3px; font-family: 'DejaVu Serif'; fill: #252927">)</tspan>
      <tspan x="21.041077" y="-0.296875" style="font-weight: 700; font-size: 13.3px; font-family: 'DejaVu Serif'; fill: #252927">x</tspan>
      <tspan x="33.522849" y="-5.021875" style="font-size: 9.31px; font-family: 'DejaVu Serif'; fill: #252927">2</tspan>
      <tspan x="104.381559" y="-5.021875" style="font-size: 9.31px; font-family: 'DejaVu Serif'; fill: #252927">2</tspan>
      <tspan x="77.260154" y="-0.296875" style="font-style: italic; font-size: 13.3px; font-family: 'DejaVu Serif'; fill: #252927">T</tspan>
      <tspan x="91.267112" y="-0.296875" style="font-style: italic; font-size: 13.3px; font-family: 'DejaVu Serif'; fill: #252927">t</tspan>
      <tspan x="135.177885" y="-0.296875" style="font-style: italic; font-size: 13.3px; font-family: 'DejaVu Serif'; fill: #252927">D</tspan>
      <tspan x="150.970488" y="-0.296875" style="font-style: italic; font-size: 13.3px; font-family: 'DejaVu Serif'; fill: #252927">T</tspan>
      <tspan x="164.977446" y="-0.296875" style="font-style: italic; font-size: 13.3px; font-family: 'DejaVu Serif'; fill: #252927">t</tspan>
      <tspan x="96.591697" y="-0.296875" style="font-size: 13.3px; font-family: 'STIXGeneral'; fill: #252927">ℓ</tspan>
     </text>
    </g>
   </g>
   <g id="text_28">
    <!-- $D(T)=D_0\exp\!\left[-E_a/(R_gT)\right]$ -->
    <g style="fill: #765a7d" transform="translate(315.6845 499.48888)">
     <text>
      <tspan x="0" y="-0.609375" style="font-style: italic; font-size: 14.5px; font-family: 'DejaVu Serif'; fill: #765a7d">D</tspan>
      <tspan x="17.282471" y="-0.609375" style="font-style: italic; font-size: 14.5px; font-family: 'DejaVu Serif'; fill: #765a7d">T</tspan>
      <tspan x="50.260059" y="-0.609375" style="font-style: italic; font-size: 14.5px; font-family: 'DejaVu Serif'; fill: #765a7d">D</tspan>
      <tspan x="111.757663" y="-0.609375" style="font-style: italic; font-size: 14.5px; font-family: 'DejaVu Serif'; fill: #765a7d">E</tspan>
      <tspan x="139.325021" y="-0.609375" style="font-style: italic; font-size: 14.5px; font-family: 'DejaVu Serif'; fill: #765a7d">R</tspan>
      <tspan x="157.128952" y="-0.609375" style="font-style: italic; font-size: 14.5px; font-family: 'DejaVu Serif'; fill: #765a7d">T</tspan>
      <tspan x="11.625488" y="-0.609375" style="font-size: 14.5px; font-family: 'DejaVu Serif'; fill: #765a7d">(</tspan>
      <tspan x="26.953857" y="-0.609375" style="font-size: 14.5px; font-family: 'DejaVu Serif'; fill: #765a7d">)</tspan>
      <tspan x="35.360742" y="-0.609375" style="font-size: 14.5px; font-family: 'DejaVu Serif'; fill: #765a7d">=</tspan>
      <tspan x="68.732349" y="-0.609375" style="font-size: 14.5px; font-family: 'DejaVu Serif'; fill: #765a7d">e</tspan>
      <tspan x="77.313403" y="-0.609375" style="font-size: 14.5px; font-family: 'DejaVu Serif'; fill: #765a7d">x</tspan>
      <tspan x="85.490894" y="-0.609375" style="font-size: 14.5px; font-family: 'DejaVu Serif'; fill: #765a7d">p</tspan>
      <tspan x="99.608249" y="-0.609375" style="font-size: 14.5px; font-family: 'DejaVu Serif'; fill: #765a7d">−</tspan>
      <tspan x="128.782785" y="-0.609375" style="font-size: 14.5px; font-family: 'DejaVu Serif'; fill: #765a7d">/</tspan>
      <tspan x="133.668039" y="-0.609375" style="font-size: 14.5px; font-family: 'DejaVu Serif'; fill: #765a7d">(</tspan>
      <tspan x="166.800339" y="-0.609375" style="font-size: 14.5px; font-family: 'DejaVu Serif'; fill: #765a7d">)</tspan>
      <tspan x="61.885547" y="1.725" style="font-size: 10.15px; font-family: 'DejaVu Serif'; fill: #765a7d">0</tspan>
      <tspan x="94.772876" y="1.929688" style="font-size: 12.626059px; font-family: 'STIXSizeOneSym'; fill: #765a7d">[</tspan>
      <tspan x="172.457321" y="1.929688" style="font-size: 12.626059px; font-family: 'STIXSizeOneSym'; fill: #765a7d">]</tspan>
      <tspan x="122.34238" y="1.725" style="font-style: italic; font-size: 10.15px; font-family: 'DejaVu Serif'; fill: #765a7d">a</tspan>
      <tspan x="150.242502" y="1.725" style="font-style: italic; font-size: 10.15px; font-family: 'DejaVu Serif'; fill: #765a7d">g</tspan>
     </text>
    </g>
   </g>
   <g id="text_29">
    <!-- $D_0=\ell^2\nu_0/6$ -->
    <g style="fill: #59605c" transform="translate(374.058 516.132122)">
     <text>
      <tspan x="0" y="-0.2875" style="font-style: italic; font-size: 10.8px; font-family: 'DejaVu Serif'; fill: #59605c">D</tspan>
      <tspan x="38.173291" y="-0.2875" style="font-style: italic; font-size: 10.8px; font-family: 'DejaVu Serif'; fill: #59605c">ν</tspan>
      <tspan x="8.618896" y="1.423437" style="font-size: 7.56px; font-family: 'DejaVu Serif'; fill: #59605c">0</tspan>
      <tspan x="33.1005" y="-4.279688" style="font-size: 7.56px; font-family: 'DejaVu Serif'; fill: #59605c">2</tspan>
      <tspan x="44.708325" y="1.423437" style="font-size: 7.56px; font-family: 'DejaVu Serif'; fill: #59605c">0</tspan>
      <tspan x="15.730408" y="-0.2875" style="font-size: 10.8px; font-family: 'DejaVu Serif'; fill: #59605c">=</tspan>
      <tspan x="49.781116" y="-0.2875" style="font-size: 10.8px; font-family: 'DejaVu Serif'; fill: #59605c">/</tspan>
      <tspan x="53.402942" y="-0.2875" style="font-size: 10.8px; font-family: 'DejaVu Serif'; fill: #59605c">6</tspan>
      <tspan x="26.776453" y="-0.2875" style="font-size: 10.8px; font-family: 'STIXGeneral'; fill: #59605c">ℓ</tspan>
     </text>
    </g>
   </g>
   <g id="PathCollection_1">
    <defs>
     <path id="C0_0_635c722d17" d="M 0 3.082207
C 0.817411 3.082207 1.601453 2.757446 2.179449 2.179449
C 2.757446 1.601453 3.082207 0.817411 3.082207 -0
C 3.082207 -0.817411 2.757446 -1.601453 2.179449 -2.179449
C 1.601453 -2.757446 0.817411 -3.082207 0 -3.082207
C -0.817411 -3.082207 -1.601453 -2.757446 -2.179449 -2.179449
C -2.757446 -1.601453 -3.082207 -0.817411 -3.082207 0
C -3.082207 0.817411 -2.757446 1.601453 -2.179449 2.179449
C -1.601453 2.757446 -0.817411 3.082207 0 3.082207
z
"/>
    </defs>
    <g clip-path="url(#p9205cab4ad)">
     <use xlink:href="#C0_0_635c722d17" x="443.52" y="444.60108" style="fill: #df7650; stroke: #df7650"/>
    </g>
    <g clip-path="url(#p9205cab4ad)">
     <use xlink:href="#C0_0_635c722d17" x="541.44" y="429.56172" style="fill: #765a7d; stroke: #765a7d"/>
    </g>
   </g>
   <g id="PathCollection_2">
    <defs>
     <path id="m10c17e770a" d="M 0 2.645751
C 0.701661 2.645751 1.374679 2.366978 1.870829 1.870829
C 2.366978 1.374679 2.645751 0.701661 2.645751 0
C 2.645751 -0.701661 2.366978 -1.374679 1.870829 -1.870829
C 1.374679 -2.366978 0.701661 -2.645751 0 -2.645751
C -0.701661 -2.645751 -1.374679 -2.366978 -1.870829 -1.870829
C -2.366978 -1.374679 -2.645751 -0.701661 -2.645751 0
C -2.645751 0.701661 -2.366978 1.374679 -1.870829 1.870829
C -1.374679 2.366978 -0.701661 2.645751 0 2.645751
z
" style="stroke: #ffffff; stroke-width: 0.8"/>
    </defs>
    <g clip-path="url(#p9205cab4ad)">
     <use xlink:href="#m10c17e770a" x="163.636364" y="331.019599" style="fill: #4f93bc; stroke: #ffffff; stroke-width: 0.8"/>
    </g>
   </g>
   <g id="PathCollection_3">
    <defs>
     <path id="md89f0ed094" d="M 0 2.645751
C 0.701661 2.645751 1.374679 2.366978 1.870829 1.870829
C 2.366978 1.374679 2.645751 0.701661 2.645751 0
C 2.645751 -0.701661 2.366978 -1.374679 1.870829 -1.870829
C 1.374679 -2.366978 0.701661 -2.645751 0 -2.645751
C -0.701661 -2.645751 -1.374679 -2.366978 -1.870829 -1.870829
C -2.366978 -1.374679 -2.645751 -0.701661 -2.645751 0
C -2.645751 0.701661 -2.366978 1.374679 -1.870829 1.870829
C -1.374679 2.366978 -0.701661 2.645751 0 2.645751
z
" style="stroke: #ffffff; stroke-width: 0.8"/>
    </defs>
    <g clip-path="url(#p9205cab4ad)">
     <use xlink:href="#md89f0ed094" x="163.636364" y="317.055593" style="fill: #df7650; stroke: #ffffff; stroke-width: 0.8"/>
    </g>
   </g>
  </g>
 </g>
 <defs>
  <clipPath id="p9205cab4ad">
   <rect x="0" y="0" width="576" height="563.976"/>
  </clipPath>
 </defs>
</svg>
